<svg width="1805" height="1704" viewBox="0 0 1805 1704" fill="none" xmlns="http://www.w3.org/2000/svg">
<mask id="mask0_231_7063" style="mask-type:alpha" maskUnits="userSpaceOnUse" x="0" y="160" width="1803" height="1209">
<rect y="160" width="1803" height="1209" fill="#D9D9D9"/>
</mask>
<g mask="url(#mask0_231_7063)">
<mask id="path-2-outside-1_231_7063" maskUnits="userSpaceOnUse" x="156.75" y="161" width="1391" height="560" fill="black">
<rect fill="white" x="156.75" y="161" width="1391" height="560"/>
<path fill-rule="evenodd" clip-rule="evenodd" d="M1515.74 688.629C1515.75 687.587 1515.75 686.544 1515.75 685.5C1515.75 413.5 1218.69 193 852.25 193C485.809 193 188.75 413.5 188.75 685.5C188.75 686.544 188.754 687.587 188.763 688.629H289.413C316.451 474.616 564.531 307 866.573 307C1168.61 307 1416.7 474.616 1443.73 688.629H1515.74Z"/>
</mask>
<path fill-rule="evenodd" clip-rule="evenodd" d="M1515.74 688.629C1515.75 687.587 1515.75 686.544 1515.75 685.5C1515.75 413.5 1218.69 193 852.25 193C485.809 193 188.75 413.5 188.75 685.5C188.75 686.544 188.754 687.587 188.763 688.629H289.413C316.451 474.616 564.531 307 866.573 307C1168.61 307 1416.7 474.616 1443.73 688.629H1515.74Z" fill="white"/>
<path d="M1515.74 688.629V720.629H1547.47L1547.74 688.898L1515.74 688.629ZM188.763 688.629L156.764 688.899L157.032 720.629H188.763V688.629ZM289.413 688.629V720.629H317.625L321.161 692.64L289.413 688.629ZM1443.73 688.629L1411.99 692.64L1415.52 720.629H1443.73V688.629ZM1483.75 685.5C1483.75 686.454 1483.75 687.408 1483.74 688.361L1547.74 688.898C1547.75 687.766 1547.75 686.633 1547.75 685.5H1483.75ZM852.25 225C1029.29 225 1188.32 278.308 1302.34 362.945C1416.37 447.583 1483.75 561.974 1483.75 685.5H1547.75C1547.75 537.026 1466.6 405.167 1340.49 311.555C1214.37 217.941 1041.65 161 852.25 161V225ZM220.75 685.5C220.75 561.974 288.132 447.583 402.157 362.945C516.18 278.308 675.207 225 852.25 225V161C662.852 161 490.129 217.941 364.012 311.555C237.898 405.167 156.75 537.026 156.75 685.5H220.75ZM220.762 688.36C220.754 687.41 220.75 686.457 220.75 685.5H156.75C156.75 686.631 156.755 687.764 156.764 688.899L220.762 688.36ZM289.413 656.629H188.763V720.629H289.413V656.629ZM321.161 692.64C333.227 597.131 395.038 509.13 492.596 444.199C590.023 379.356 721.263 339 866.573 339V275C709.841 275 566.021 318.452 457.137 390.92C348.385 463.301 272.637 566.114 257.666 684.619L321.161 692.64ZM866.573 339C1011.88 339 1143.12 379.356 1240.55 444.199C1338.11 509.13 1399.92 597.131 1411.99 692.64L1475.48 684.619C1460.51 566.114 1384.76 463.301 1276.01 390.92C1167.13 318.452 1023.31 275 866.573 275V339ZM1515.74 656.629H1443.73V720.629H1515.74V656.629Z" fill="black" mask="url(#path-2-outside-1_231_7063)"/>
<rect x="2.19116" y="-12.5379" width="143.089" height="529.23" rx="71.5445" transform="matrix(-0.818281 0.574819 0.574819 0.818281 1520.29 583.462)" fill="white" stroke="black" stroke-width="18"/>
<rect x="204.427" y="575.484" width="143.089" height="529.23" rx="71.5445" transform="rotate(19.791 204.427 575.484)" fill="white" stroke="black" stroke-width="18"/>
<mask id="path-6-outside-2_231_7063" maskUnits="userSpaceOnUse" x="-7.17754" y="640.096" width="162.558" height="322.004" fill="black">
<rect fill="white" x="-7.17754" y="640.096" width="162.558" height="322.004"/>
<path fill-rule="evenodd" clip-rule="evenodd" d="M124.855 663.701C109.927 652.663 90.5993 663.149 81.6851 687.122L74.9702 705.181C64.1355 722.95 52.9325 745.347 42.5909 770.742C27.4633 807.889 17.149 844.155 12.8519 872.239L11.4845 875.916C2.57032 899.89 7.44565 928.272 22.3738 939.311C37.3019 950.349 56.6299 939.863 65.5441 915.89L135.745 727.095C144.659 703.122 139.784 674.74 124.855 663.701Z"/>
</mask>
<path fill-rule="evenodd" clip-rule="evenodd" d="M124.855 663.701C109.927 652.663 90.5993 663.149 81.6851 687.122L74.9702 705.181C64.1355 722.95 52.9325 745.347 42.5909 770.742C27.4633 807.889 17.149 844.155 12.8519 872.239L11.4845 875.916C2.57032 899.89 7.44565 928.272 22.3738 939.311C37.3019 950.349 56.6299 939.863 65.5441 915.89L135.745 727.095C144.659 703.122 139.784 674.74 124.855 663.701Z" fill="white"/>
<path d="M81.6851 687.122L74.1867 684.334L81.6851 687.122ZM74.9702 705.181L81.8006 709.345L82.2008 708.689L82.4686 707.969L74.9702 705.181ZM42.5909 770.742L35.1817 767.724L42.5909 770.742ZM12.8519 872.239L20.3503 875.027L20.6359 874.259L20.7598 873.449L12.8519 872.239ZM11.4845 875.916L3.98605 873.128L3.98605 873.128L11.4845 875.916ZM22.3738 939.311L27.1302 932.878L27.1302 932.878L22.3738 939.311ZM65.5441 915.89L58.0456 913.102L65.5441 915.89ZM135.745 727.095L128.246 724.307L135.745 727.095ZM89.1835 689.91C93.1643 679.204 99.1588 672.391 104.83 669.314C110.157 666.424 115.351 666.623 120.099 670.134L129.612 657.269C119.432 649.741 107.497 649.664 97.2001 655.25C87.2467 660.65 79.1201 671.066 74.1867 684.334L89.1835 689.91ZM82.4686 707.969L89.1835 689.91L74.1867 684.334L67.4718 702.392L82.4686 707.969ZM50 773.759C60.2098 748.688 71.2272 726.686 81.8006 709.345L68.1398 701.016C57.0439 719.213 45.6552 742.006 35.1817 767.724L50 773.759ZM20.7598 873.449C24.9412 846.122 35.0505 810.469 50 773.759L35.1817 767.724C19.8761 805.308 9.35675 842.189 4.9439 871.029L20.7598 873.449ZM18.9829 878.705L20.3503 875.027L5.35346 869.451L3.98605 873.128L18.9829 878.705ZM27.1302 932.878C21.8932 929.006 17.6358 921.374 15.8728 911.11C14.1366 901.002 15.0268 889.344 18.9829 878.705L3.98605 873.128C-0.972056 886.462 -2.1012 900.982 0.103742 913.819C2.28186 926.499 7.92627 938.577 17.6174 945.743L27.1302 932.878ZM58.0456 913.102C54.0649 923.808 48.0704 930.621 42.3993 933.698C37.0717 936.588 31.8782 936.389 27.1302 932.878L17.6174 945.743C27.7975 953.271 39.7321 953.348 50.0291 947.762C59.9825 942.362 68.1091 931.946 73.0425 918.678L58.0456 913.102ZM128.246 724.307L58.0456 913.102L73.0425 918.678L143.243 729.884L128.246 724.307ZM120.099 670.134C125.336 674.006 129.593 681.638 131.356 691.902C133.093 702.01 132.202 713.668 128.246 724.307L143.243 729.884C148.201 716.549 149.33 702.03 147.125 689.193C144.947 676.513 139.303 664.435 129.612 657.269L120.099 670.134Z" fill="black" mask="url(#path-6-outside-2_231_7063)"/>
<mask id="path-8-outside-3_231_7063" maskUnits="userSpaceOnUse" x="1590.21" y="598.703" width="229.952" height="333.669" fill="black">
<rect fill="white" x="1590.21" y="598.703" width="229.952" height="333.669"/>
<path fill-rule="evenodd" clip-rule="evenodd" d="M1621.84 645.088C1633.55 630.683 1654.88 636.03 1669.48 657.032L1680.48 672.852C1695.39 687.367 1711.82 706.273 1728.15 728.296C1752.04 760.512 1771.06 793.072 1782.21 819.203L1784.45 822.425C1799.04 843.427 1801.38 872.13 1789.67 886.535C1777.96 900.94 1756.63 895.593 1742.03 874.591L1627.07 709.198C1612.47 688.197 1610.13 659.494 1621.84 645.088Z"/>
</mask>
<path fill-rule="evenodd" clip-rule="evenodd" d="M1621.84 645.088C1633.55 630.683 1654.88 636.03 1669.48 657.032L1680.48 672.852C1695.39 687.367 1711.82 706.273 1728.15 728.296C1752.04 760.512 1771.06 793.072 1782.21 819.203L1784.45 822.425C1799.04 843.427 1801.38 872.13 1789.67 886.535C1777.96 900.94 1756.63 895.593 1742.03 874.591L1627.07 709.198C1612.47 688.197 1610.13 659.494 1621.84 645.088Z" fill="white"/>
<path d="M1669.48 657.032L1676.05 652.466L1669.48 657.032ZM1680.48 672.852L1674.9 678.586L1674.35 678.05L1673.91 677.418L1680.48 672.852ZM1728.15 728.296L1734.58 723.531L1728.15 728.296ZM1782.21 819.203L1775.64 823.77L1775.17 823.097L1774.85 822.343L1782.21 819.203ZM1784.45 822.425L1791.01 817.859L1791.01 817.859L1784.45 822.425ZM1789.67 886.535L1783.46 881.488L1783.46 881.488L1789.67 886.535ZM1742.03 874.591L1748.6 870.025L1742.03 874.591ZM1627.07 709.198L1633.64 704.632L1627.07 709.198ZM1662.91 661.598C1656.39 652.219 1648.89 647.111 1642.63 645.542C1636.76 644.068 1631.77 645.553 1628.05 650.135L1615.63 640.041C1623.62 630.218 1635.16 627.174 1646.53 630.023C1657.51 632.777 1667.97 640.843 1676.05 652.466L1662.91 661.598ZM1673.91 677.418L1662.91 661.598L1676.05 652.466L1687.05 668.286L1673.91 677.418ZM1721.73 733.062C1705.6 711.32 1689.45 692.75 1674.9 678.586L1686.06 667.119C1701.33 681.984 1718.03 701.227 1734.58 723.531L1721.73 733.062ZM1774.85 822.343C1764 796.915 1745.34 764.898 1721.73 733.062L1734.58 723.531C1758.75 756.125 1778.12 789.229 1789.56 816.064L1774.85 822.343ZM1777.88 826.991L1775.64 823.77L1788.78 814.637L1791.01 817.859L1777.88 826.991ZM1783.46 881.488C1787.57 876.435 1789.8 867.983 1788.95 857.604C1788.12 847.382 1784.36 836.312 1777.88 826.991L1791.01 817.859C1799.13 829.54 1803.84 843.323 1804.9 856.304C1805.94 869.127 1803.48 882.23 1795.88 891.582L1783.46 881.488ZM1748.6 870.025C1755.12 879.404 1762.62 884.512 1768.88 886.081C1774.76 887.555 1779.74 886.07 1783.46 881.488L1795.88 891.582C1787.89 901.406 1776.35 904.45 1764.99 901.601C1754 898.847 1743.54 890.78 1735.46 879.157L1748.6 870.025ZM1633.64 704.632L1748.6 870.025L1735.46 879.157L1620.5 713.764L1633.64 704.632ZM1628.05 650.135C1623.94 655.189 1621.72 663.64 1622.56 674.02C1623.39 684.242 1627.16 695.312 1633.64 704.632L1620.5 713.764C1612.38 702.083 1607.67 688.301 1606.61 675.319C1605.57 662.496 1608.03 649.393 1615.63 640.041L1628.05 650.135Z" fill="black" mask="url(#path-8-outside-3_231_7063)"/>
<mask id="path-10-outside-4_231_7063" maskUnits="userSpaceOnUse" x="161.168" y="657.658" width="1579" height="1271" fill="black">
<rect fill="white" x="161.168" y="657.658" width="1579" height="1271"/>
<path fill-rule="evenodd" clip-rule="evenodd" d="M662.462 1703.31C553.844 1805.75 431.002 1872.07 383.254 1871.55C290.282 1870.54 217.365 1643.51 220.388 1364.47C204.803 1174.28 273.746 994.1 349.531 796.036L349.533 796.031L349.537 796.022C359.579 769.777 369.741 743.217 379.843 716.28C385.495 707.62 504.351 790.397 648.193 902.511C808.447 849.335 1024.88 873.255 1214.1 938.549C1266 822.016 1321.96 731.37 1339.08 739.508C1339.25 739.513 1339.41 739.56 1339.57 739.652L1341.85 741.033C1341.91 741.07 1341.96 741.112 1342.01 741.159C1403.2 765.507 1489.31 906.008 1644.12 1158.59L1644.12 1158.59C1647.35 1163.86 1650.61 1169.18 1653.89 1174.54C1769.01 1449.6 1509.21 1635.45 1416.28 1682.67C1376.64 1702.8 1377.45 1694.13 1380.94 1656.91L1380.94 1656.9C1381.53 1650.57 1382.2 1643.42 1382.76 1635.43C1260.71 1698.13 1103.23 1735.9 931.311 1735.9C836.075 1735.9 745.268 1724.31 662.462 1703.31Z"/>
</mask>
<path fill-rule="evenodd" clip-rule="evenodd" d="M662.462 1703.31C553.844 1805.75 431.002 1872.07 383.254 1871.55C290.282 1870.54 217.365 1643.51 220.388 1364.47C204.803 1174.28 273.746 994.1 349.531 796.036L349.533 796.031L349.537 796.022C359.579 769.777 369.741 743.217 379.843 716.28C385.495 707.62 504.351 790.397 648.193 902.511C808.447 849.335 1024.88 873.255 1214.1 938.549C1266 822.016 1321.96 731.37 1339.08 739.508C1339.25 739.513 1339.41 739.56 1339.57 739.652L1341.85 741.033C1341.91 741.07 1341.96 741.112 1342.01 741.159C1403.2 765.507 1489.31 906.008 1644.12 1158.59L1644.12 1158.59C1647.35 1163.86 1650.61 1169.18 1653.89 1174.54C1769.01 1449.6 1509.21 1635.45 1416.28 1682.67C1376.64 1702.8 1377.45 1694.13 1380.94 1656.91L1380.94 1656.9C1381.53 1650.57 1382.2 1643.42 1382.76 1635.43C1260.71 1698.13 1103.23 1735.9 931.311 1735.9C836.075 1735.9 745.268 1724.31 662.462 1703.31Z" fill="black"/>
<path d="M383.254 1871.55L383.871 1814.55H383.871L383.254 1871.55ZM662.462 1703.31L676.471 1648.06L646.127 1640.36L623.353 1661.84L662.462 1703.31ZM220.388 1364.47L277.385 1365.08L277.414 1362.44L277.198 1359.81L220.388 1364.47ZM349.531 796.036L296.309 775.629L296.302 775.648L296.295 775.666L349.531 796.036ZM349.533 796.031L296.332 775.569L296.322 775.597L296.311 775.625L349.533 796.031ZM349.537 796.022L402.737 816.483L402.755 816.437L402.773 816.391L349.537 796.022ZM379.843 716.28L332.112 685.122L328.678 690.383L326.472 696.266L379.843 716.28ZM648.193 902.511L613.152 947.468L637.203 966.214L666.144 956.611L648.193 902.511ZM1214.1 938.549L1195.51 992.432L1244.91 1009.48L1266.17 961.738L1214.1 938.549ZM1339.08 739.508L1314.61 790.987L1325.4 796.117L1337.34 796.481L1339.08 739.508ZM1339.57 739.652L1369.11 690.908L1369.11 690.908L1339.57 739.652ZM1341.85 741.033L1312.3 789.777L1312.3 789.777L1341.85 741.033ZM1342.01 741.159L1303.01 782.727L1310.89 790.124L1320.94 794.121L1342.01 741.159ZM1644.12 1158.59L1694.41 1131.77L1693.61 1130.26L1692.72 1128.81L1644.12 1158.59ZM1644.12 1158.59L1593.83 1185.42L1594.63 1186.92L1595.52 1188.38L1644.12 1158.59ZM1653.89 1174.54L1706.47 1152.53L1704.78 1148.49L1702.49 1144.75L1653.89 1174.54ZM1416.28 1682.67L1390.46 1631.85L1416.28 1682.67ZM1380.94 1656.91L1324.2 1651.38L1324.19 1651.49L1324.18 1651.6L1380.94 1656.91ZM1380.94 1656.9L1437.67 1662.44L1437.68 1662.33L1437.69 1662.21L1380.94 1656.9ZM1382.76 1635.43L1439.62 1639.43L1446.71 1538.5L1356.71 1584.73L1382.76 1635.43ZM382.636 1928.55C405.591 1928.8 430.391 1921.57 452.398 1913.02C475.792 1903.92 501.755 1891.03 528.755 1875.27C582.789 1843.75 644.134 1798.95 701.57 1744.78L623.353 1661.84C572.172 1710.11 517.786 1749.69 471.308 1776.81C448.052 1790.37 427.563 1800.36 411.101 1806.76C402.889 1809.95 396.23 1812.03 391.137 1813.26C385.781 1814.55 383.587 1814.55 383.871 1814.55L382.636 1928.55ZM163.392 1363.85C161.832 1507.79 179.749 1640.68 211.553 1739.7C227.359 1788.92 247.594 1832.93 273.002 1865.92C297.909 1898.25 334.432 1928.03 382.636 1928.55L383.871 1814.55C383.866 1814.55 383.844 1814.55 383.782 1814.54C383.717 1814.53 383.555 1814.5 383.279 1814.42C382.737 1814.24 381.576 1813.79 379.794 1812.67C376.051 1810.32 370.343 1805.48 363.315 1796.35C348.998 1777.77 333.759 1747.4 320.092 1704.84C292.951 1620.34 275.921 1500.19 277.385 1365.08L163.392 1363.85ZM296.295 775.666C221.543 971.031 146.745 1163.71 163.579 1369.12L277.198 1359.81C262.861 1184.86 325.95 1017.17 402.767 816.405L296.295 775.666ZM296.311 775.625L296.309 775.629L402.753 816.442L402.755 816.438L296.311 775.625ZM296.336 775.56L296.332 775.569L402.734 816.493L402.737 816.483L296.336 775.56ZM326.472 696.266C316.448 722.997 306.353 749.379 296.301 775.652L402.773 816.391C412.804 790.174 423.034 763.438 433.213 736.293L326.472 696.266ZM683.234 857.554C610.798 801.096 544.246 751.702 494.719 717.294C470.141 700.218 448.82 686.179 432.701 676.753C424.999 672.25 416.497 667.616 408.544 664.386C405.06 662.971 398.058 660.292 389.55 659.187C385.323 658.638 377.206 657.976 367.519 660.279C356.932 662.796 342.268 669.564 332.112 685.122L427.573 747.437C417.77 762.454 403.681 768.859 393.884 771.188C384.988 773.303 377.876 772.629 374.865 772.237C371.371 771.783 368.854 771.071 367.758 770.737C366.525 770.362 365.779 770.061 365.649 770.008C365.446 769.926 366.159 770.212 368.043 771.194C369.824 772.122 372.178 773.423 375.158 775.165C387.409 782.328 405.852 794.366 429.675 810.917C476.949 843.76 541.746 891.812 613.152 947.468L683.234 857.554ZM1232.7 884.667C1037.55 817.329 807.178 789.7 630.241 848.412L666.144 956.611C809.715 908.971 1012.21 929.182 1195.51 992.432L1232.7 884.667ZM1363.55 688.028C1335.27 674.581 1310.43 686.858 1301.98 691.84C1291.69 697.907 1283.48 705.911 1277.74 712.136C1265.69 725.193 1253.26 742.91 1241.29 762.081C1216.86 801.199 1188.69 855.509 1162.03 915.36L1266.17 961.738C1291.42 905.056 1317.18 855.777 1337.98 822.473C1348.62 805.433 1356.64 794.731 1361.52 789.439C1364.24 786.489 1363.62 787.836 1359.87 790.048C1357.96 791.175 1338.62 802.399 1314.61 790.987L1363.55 688.028ZM1369.11 690.908C1360.34 685.589 1350.55 682.831 1340.82 682.534L1337.34 796.481C1327.94 796.194 1318.49 793.53 1310.02 788.397L1369.11 690.908ZM1371.39 692.289L1369.11 690.908L1310.02 788.396L1312.3 789.777L1371.39 692.289ZM1381.01 699.592C1378.06 696.818 1374.83 694.373 1371.39 692.289L1312.3 789.777C1308.98 787.767 1305.87 785.407 1303.01 782.727L1381.01 699.592ZM1692.72 1128.81C1615.7 1003.14 1554.45 903.163 1504.75 831.731C1479.87 795.974 1456.77 765.732 1435.01 742.326C1414.03 719.758 1390.21 698.991 1363.09 688.198L1320.94 794.121C1324.41 795.501 1334.3 801.427 1351.51 819.944C1367.95 837.623 1387.52 862.858 1411.17 896.843C1458.52 964.895 1517.73 1061.46 1595.52 1188.38L1692.72 1128.81ZM1694.42 1131.77L1694.41 1131.77L1593.83 1185.42L1593.83 1185.42L1694.42 1131.77ZM1702.49 1144.75C1699.2 1139.39 1695.95 1134.08 1692.72 1128.81L1595.52 1188.38C1598.75 1193.65 1602.01 1198.96 1605.3 1204.33L1702.49 1144.75ZM1442.09 1733.49C1493.92 1707.15 1590.37 1643.61 1659.43 1547.25C1730.21 1448.5 1773.42 1312.5 1706.47 1152.53L1601.31 1196.54C1649.48 1311.65 1620.35 1406.09 1566.78 1480.84C1511.49 1557.97 1431.56 1610.97 1390.46 1631.85L1442.09 1733.49ZM1324.18 1651.6C1323.43 1659.69 1322.33 1670.65 1322.42 1680C1322.46 1684.89 1322.81 1692.19 1324.75 1700.18C1326.7 1708.2 1331.15 1720.65 1342.19 1731.66C1367.42 1756.82 1398.99 1749.89 1408.09 1747.48C1419.91 1744.36 1431.99 1738.62 1442.09 1733.49L1390.46 1631.85C1380.74 1636.78 1378.06 1637.51 1379 1637.26C1379.62 1637.09 1384.75 1635.71 1392.33 1636.45C1401.24 1637.33 1412.89 1641.16 1422.69 1650.94C1431.56 1659.79 1434.53 1669.19 1435.52 1673.27C1436.51 1677.31 1436.42 1679.78 1436.41 1678.94C1436.39 1676.83 1436.7 1672.74 1437.69 1662.22L1324.18 1651.6ZM1324.21 1651.37L1324.2 1651.38L1437.67 1662.45L1437.67 1662.44L1324.21 1651.37ZM1325.9 1631.44C1325.39 1638.68 1324.78 1645.23 1324.18 1651.59L1437.69 1662.21C1438.28 1655.92 1439.01 1648.15 1439.62 1639.43L1325.9 1631.44ZM931.311 1792.9C1111.16 1792.9 1277.75 1753.46 1408.8 1686.14L1356.71 1584.73C1243.67 1642.8 1095.3 1678.9 931.311 1678.9V1792.9ZM648.452 1758.56C735.982 1780.76 831.501 1792.9 931.311 1792.9V1678.9C840.649 1678.9 754.555 1667.86 676.471 1648.06L648.452 1758.56Z" fill="white" mask="url(#path-10-outside-4_231_7063)"/>
<path d="M604.299 1249.35C622.652 1250.09 640.29 1246.34 654.069 1238.78C667.503 1231.41 680.055 1218.56 680.778 1200.57C681.502 1182.58 670.023 1168.77 657.225 1160.34C644.099 1151.69 626.817 1146.54 608.465 1145.8C590.113 1145.07 572.474 1148.81 558.695 1156.37C545.261 1163.75 532.71 1176.6 531.986 1194.58C531.263 1212.57 542.741 1226.39 555.539 1234.82C568.666 1243.46 585.947 1248.61 604.299 1249.35Z" fill="white" stroke="white" stroke-width="35"/>
<path d="M1269.29 1249.35C1250.94 1250.09 1233.3 1246.34 1219.52 1238.78C1206.09 1231.41 1193.54 1218.56 1192.81 1200.57C1192.09 1182.58 1203.57 1168.77 1216.36 1160.34C1229.49 1151.69 1246.77 1146.54 1265.12 1145.8C1283.48 1145.07 1301.12 1148.81 1314.89 1156.37C1328.33 1163.75 1340.88 1176.6 1341.6 1194.58C1342.33 1212.57 1330.85 1226.39 1318.05 1234.82C1304.92 1243.46 1287.64 1248.61 1269.29 1249.35Z" fill="white" stroke="white" stroke-width="35"/>
</g>
</svg>
