<svg width="1816" height="1933" viewBox="0 0 1816 1933" fill="none" xmlns="http://www.w3.org/2000/svg">
  <mask id="mask0_113_109" style="mask-type:alpha" maskUnits="userSpaceOnUse" x="0" y="586" width="1804" height="1029">
    <path
      d="M1719.5 810C2024.96 1292.5 1436.7 1615 909.543 1615C382.387 1615 -100.536 1241.5 18.4997 687.5C927.464 687.5 401.335 855 928.49 855C1455.65 855 1719.5 282.845 1719.5 810Z"
      fill="white" />
  </mask>
  <g mask="url(#mask0_113_109)">
    <mask id="path-2-outside-1_113_109" maskUnits="userSpaceOnUse" x="166.436" y="725.658" width="1579" height="1271"
      fill="black">
      <rect fill="white" x="166.436" y="725.658" width="1579" height="1271" />
      <path fill-rule="evenodd" clip-rule="evenodd"
        d="M667.729 1771.31C559.111 1873.75 436.27 1940.07 388.521 1939.55C295.55 1938.54 222.632 1711.51 225.656 1432.47C210.071 1242.28 279.014 1062.1 354.799 864.036L354.801 864.031L354.804 864.022C364.846 837.777 375.009 811.217 385.11 784.28C390.763 775.62 509.619 858.397 653.46 970.511C813.714 917.335 1030.15 941.255 1219.37 1006.55C1271.27 890.016 1327.23 799.37 1344.35 807.508C1344.51 807.513 1344.68 807.56 1344.84 807.652L1347.11 809.033C1347.17 809.07 1347.23 809.112 1347.28 809.159C1408.47 833.507 1494.58 974.008 1649.39 1226.59L1649.39 1226.59C1652.62 1231.86 1655.87 1237.18 1659.16 1242.54C1774.28 1517.6 1514.48 1703.45 1421.54 1750.67C1381.91 1770.8 1382.72 1762.13 1386.2 1724.91L1386.2 1724.9C1386.8 1718.57 1387.47 1711.42 1388.03 1703.43C1265.98 1766.13 1108.5 1803.9 936.578 1803.9C841.343 1803.9 750.536 1792.31 667.729 1771.31Z" />
    </mask>
    <path fill-rule="evenodd" clip-rule="evenodd"
      d="M667.729 1771.31C559.111 1873.75 436.27 1940.07 388.521 1939.55C295.55 1938.54 222.632 1711.51 225.656 1432.47C210.071 1242.28 279.014 1062.1 354.799 864.036L354.801 864.031L354.804 864.022C364.846 837.777 375.009 811.217 385.11 784.28C390.763 775.62 509.619 858.397 653.46 970.511C813.714 917.335 1030.15 941.255 1219.37 1006.55C1271.27 890.016 1327.23 799.37 1344.35 807.508C1344.51 807.513 1344.68 807.56 1344.84 807.652L1347.11 809.033C1347.17 809.07 1347.23 809.112 1347.28 809.159C1408.47 833.507 1494.58 974.008 1649.39 1226.59L1649.39 1226.59C1652.62 1231.86 1655.87 1237.18 1659.16 1242.54C1774.28 1517.6 1514.48 1703.45 1421.54 1750.67C1381.91 1770.8 1382.72 1762.13 1386.2 1724.91L1386.2 1724.9C1386.8 1718.57 1387.47 1711.42 1388.03 1703.43C1265.98 1766.13 1108.5 1803.9 936.578 1803.9C841.343 1803.9 750.536 1792.31 667.729 1771.31Z"
      fill="black" />
    <path
      d="M388.521 1939.55L389.139 1882.55L389.139 1882.55L388.521 1939.55ZM667.729 1771.31L681.739 1716.06L651.394 1708.36L628.62 1729.84L667.729 1771.31ZM225.656 1432.47L282.653 1433.08L282.681 1430.44L282.465 1427.81L225.656 1432.47ZM354.799 864.036L301.577 843.629L301.57 843.648L301.563 843.666L354.799 864.036ZM354.801 864.031L301.6 843.569L301.589 843.597L301.579 843.625L354.801 864.031ZM354.804 864.022L408.005 884.483L408.023 884.437L408.04 884.391L354.804 864.022ZM385.11 784.28L337.38 753.122L333.945 758.383L331.739 764.266L385.11 784.28ZM653.46 970.511L618.42 1015.47L642.47 1034.21L671.412 1024.61L653.46 970.511ZM1219.37 1006.55L1200.78 1060.43L1250.18 1077.48L1271.44 1029.74L1219.37 1006.55ZM1344.35 807.508L1319.88 858.987L1330.67 864.117L1342.61 864.481L1344.35 807.508ZM1344.84 807.652L1374.38 758.908L1374.38 758.908L1344.84 807.652ZM1347.11 809.033L1317.57 857.777L1317.57 857.777L1347.11 809.033ZM1347.28 809.159L1308.28 850.727L1316.16 858.124L1326.21 862.121L1347.28 809.159ZM1649.39 1226.59L1699.68 1199.77L1698.88 1198.26L1697.99 1196.81L1649.39 1226.59ZM1649.39 1226.59L1599.09 1253.42L1599.9 1254.92L1600.79 1256.38L1649.39 1226.59ZM1659.16 1242.54L1711.74 1220.53L1710.05 1216.49L1707.76 1212.75L1659.16 1242.54ZM1421.54 1750.67L1395.73 1699.85L1395.73 1699.85L1421.54 1750.67ZM1386.2 1724.91L1329.47 1719.38L1329.46 1719.49L1329.45 1719.6L1386.2 1724.91ZM1386.2 1724.9L1442.93 1730.44L1442.95 1730.33L1442.96 1730.21L1386.2 1724.9ZM1388.03 1703.43L1444.89 1707.43L1451.98 1606.5L1361.98 1652.73L1388.03 1703.43ZM387.904 1996.55C410.859 1996.8 435.658 1989.57 457.666 1981.02C481.06 1971.92 507.023 1959.03 534.023 1943.27C588.057 1911.75 649.401 1866.95 706.838 1812.78L628.62 1729.84C577.439 1778.11 523.054 1817.69 476.576 1844.81C453.32 1858.37 432.831 1868.36 416.368 1874.76C408.156 1877.95 401.498 1880.03 396.405 1881.26C391.049 1882.55 388.855 1882.55 389.139 1882.55L387.904 1996.55ZM168.659 1431.85C167.1 1575.79 185.017 1708.68 216.821 1807.7C232.627 1856.92 252.861 1900.93 278.27 1933.92C303.177 1966.25 339.7 1996.03 387.904 1996.55L389.139 1882.55C389.134 1882.55 389.112 1882.55 389.049 1882.54C388.985 1882.53 388.822 1882.5 388.547 1882.42C388.004 1882.24 386.843 1881.79 385.062 1880.67C381.319 1878.32 375.611 1873.48 368.582 1864.35C354.265 1845.77 339.027 1815.4 325.36 1772.84C298.218 1688.34 281.189 1568.19 282.653 1433.08L168.659 1431.85ZM301.563 843.666C226.811 1039.03 152.013 1231.71 168.846 1437.12L282.465 1427.81C268.128 1252.86 331.217 1085.17 408.035 884.405L301.563 843.666ZM301.579 843.625L301.577 843.629L408.021 884.442L408.023 884.438L301.579 843.625ZM301.604 843.56L301.6 843.569L408.001 884.493L408.005 884.483L301.604 843.56ZM331.739 764.266C321.715 790.997 311.621 817.379 301.568 843.652L408.04 884.391C418.072 858.174 428.302 831.438 438.481 804.293L331.739 764.266ZM688.501 925.554C616.066 869.096 549.513 819.702 499.986 785.294C475.408 768.218 454.088 754.179 437.969 744.753C430.267 740.25 421.765 735.616 413.812 732.386C410.327 730.971 403.325 728.292 394.818 727.187C390.59 726.638 382.473 725.976 372.786 728.279C362.199 730.796 347.536 737.564 337.38 753.122L432.841 815.437C423.038 830.454 408.949 836.859 399.152 839.188C390.255 841.303 383.144 840.629 380.133 840.237C376.639 839.783 374.122 839.071 373.026 838.737C371.792 838.362 371.046 838.061 370.916 838.008C370.714 837.926 371.426 838.212 373.311 839.194C375.092 840.122 377.446 841.423 380.425 843.165C392.676 850.328 411.12 862.366 434.942 878.917C482.217 911.76 547.013 959.812 618.42 1015.47L688.501 925.554ZM1237.96 952.667C1042.82 885.329 812.446 857.7 635.509 916.412L671.412 1024.61C814.982 976.971 1017.48 997.182 1200.78 1060.43L1237.96 952.667ZM1368.82 756.028C1340.53 742.581 1315.7 754.858 1307.25 759.84C1296.95 765.907 1288.75 773.911 1283 780.136C1270.96 793.193 1258.53 810.91 1246.56 830.081C1222.12 869.199 1193.96 923.509 1167.3 983.36L1271.44 1029.74C1296.68 973.056 1322.44 923.777 1343.25 890.473C1353.89 873.433 1361.91 862.731 1366.79 857.439C1369.51 854.489 1368.89 855.836 1365.14 858.048C1363.22 859.175 1343.88 870.399 1319.88 858.987L1368.82 756.028ZM1374.38 758.908C1365.61 753.589 1355.82 750.831 1346.09 750.534L1342.61 864.481C1333.21 864.194 1323.76 861.53 1315.29 856.397L1374.38 758.908ZM1376.66 760.289L1374.38 758.908L1315.29 856.396L1317.57 857.777L1376.66 760.289ZM1386.28 767.592C1383.33 764.818 1380.1 762.373 1376.66 760.289L1317.57 857.777C1314.25 855.767 1311.13 853.407 1308.28 850.727L1386.28 767.592ZM1697.99 1196.81C1620.97 1071.14 1559.72 971.163 1510.01 899.731C1485.13 863.974 1462.03 833.732 1440.28 810.326C1419.3 787.758 1395.48 766.991 1368.35 756.198L1326.21 862.121C1329.68 863.501 1339.57 869.427 1356.78 887.944C1373.22 905.623 1392.79 930.858 1416.44 964.843C1463.79 1032.89 1523 1129.46 1600.79 1256.38L1697.99 1196.81ZM1699.68 1199.77L1699.68 1199.77L1599.09 1253.42L1599.09 1253.42L1699.68 1199.77ZM1707.76 1212.75C1704.47 1207.39 1701.22 1202.08 1697.99 1196.81L1600.79 1256.38C1604.02 1261.65 1607.28 1266.96 1610.56 1272.33L1707.76 1212.75ZM1447.36 1801.49C1499.19 1775.15 1595.64 1711.61 1664.7 1615.25C1735.48 1516.5 1778.69 1380.5 1711.74 1220.53L1606.58 1264.54C1654.75 1379.65 1625.62 1474.09 1572.04 1548.84C1516.76 1625.97 1436.83 1678.97 1395.73 1699.85L1447.36 1801.49ZM1329.45 1719.6C1328.69 1727.69 1327.6 1738.65 1327.68 1748C1327.73 1752.89 1328.07 1760.19 1330.02 1768.18C1331.96 1776.2 1336.42 1788.65 1347.45 1799.66C1372.69 1824.82 1404.26 1817.89 1413.36 1815.48C1425.18 1812.36 1437.26 1806.62 1447.36 1801.49L1395.73 1699.85C1386.01 1704.78 1383.33 1705.51 1384.26 1705.26C1384.89 1705.09 1390.02 1703.71 1397.6 1704.45C1406.51 1705.33 1418.15 1709.16 1427.95 1718.94C1436.83 1727.79 1439.8 1737.19 1440.79 1741.27C1441.78 1745.31 1441.69 1747.78 1441.68 1746.94C1441.66 1744.83 1441.97 1740.74 1442.96 1730.22L1329.45 1719.6ZM1329.47 1719.37L1329.47 1719.38L1442.93 1730.45L1442.93 1730.44L1329.47 1719.37ZM1331.17 1699.44C1330.66 1706.68 1330.05 1713.23 1329.45 1719.59L1442.96 1730.21C1443.54 1723.92 1444.27 1716.15 1444.89 1707.43L1331.17 1699.44ZM936.578 1860.9C1116.42 1860.9 1283.02 1821.46 1414.07 1754.14L1361.98 1652.73C1248.94 1710.8 1100.57 1746.9 936.578 1746.9V1860.9ZM653.719 1826.56C741.249 1848.76 836.769 1860.9 936.578 1860.9V1746.9C845.916 1746.9 759.823 1735.86 681.739 1716.06L653.719 1826.56Z"
      fill="white" mask="url(#path-2-outside-1_113_109)" />
    <path
      d="M609.569 1317.35C627.921 1318.09 645.56 1314.34 659.339 1306.78C672.773 1299.41 685.324 1286.56 686.048 1268.57C686.772 1250.58 675.293 1236.77 662.495 1228.34C649.368 1219.69 632.087 1214.54 613.735 1213.8C595.383 1213.07 577.744 1216.81 563.965 1224.37C550.531 1231.75 537.98 1244.6 537.256 1262.58C536.532 1280.57 548.011 1294.39 560.809 1302.82C573.936 1311.46 591.217 1316.61 609.569 1317.35Z"
      fill="white" stroke="white" stroke-width="35" />
    <path
      d="M1274.56 1317.35C1256.21 1318.09 1238.57 1314.34 1224.79 1306.78C1211.35 1299.41 1198.8 1286.56 1198.08 1268.57C1197.36 1250.58 1208.83 1236.77 1221.63 1228.34C1234.76 1219.69 1252.04 1214.54 1270.39 1213.8C1288.74 1213.07 1306.38 1216.81 1320.16 1224.37C1333.6 1231.75 1346.15 1244.6 1346.87 1262.58C1347.59 1280.57 1336.12 1294.39 1323.32 1302.82C1310.19 1311.46 1292.91 1316.61 1274.56 1317.35Z"
      fill="white" stroke="white" stroke-width="35" />
  </g>
  <mask id="path-6-outside-2_113_109" maskUnits="userSpaceOnUse" x="162.016" y="229" width="1391" height="560"
    fill="black">
    <rect fill="white" x="162.016" y="229" width="1391" height="560" />
    <path fill-rule="evenodd" clip-rule="evenodd"
      d="M1521 756.629C1521.01 755.587 1521.02 754.544 1521.02 753.5C1521.02 481.5 1223.96 261 857.516 261C491.075 261 194.016 481.5 194.016 753.5C194.016 754.544 194.02 755.587 194.029 756.629H294.679C321.716 542.616 569.797 375 871.839 375C1173.88 375 1421.96 542.616 1449 756.629H1521Z" />
  </mask>
  <path fill-rule="evenodd" clip-rule="evenodd"
    d="M1521 756.629C1521.01 755.587 1521.02 754.544 1521.02 753.5C1521.02 481.5 1223.96 261 857.516 261C491.075 261 194.016 481.5 194.016 753.5C194.016 754.544 194.02 755.587 194.029 756.629H294.679C321.716 542.616 569.797 375 871.839 375C1173.88 375 1421.96 542.616 1449 756.629H1521Z"
    fill="white" />
  <path
    d="M1521 756.629V788.629H1552.74L1553 756.898L1521 756.629ZM194.029 756.629L162.03 756.899L162.297 788.629H194.029V756.629ZM294.679 756.629V788.629H322.89L326.426 760.64L294.679 756.629ZM1449 756.629L1417.25 760.64L1420.79 788.629H1449V756.629ZM1489.02 753.5C1489.02 754.454 1489.01 755.408 1489 756.361L1553 756.898C1553.01 755.766 1553.02 754.633 1553.02 753.5H1489.02ZM857.516 293C1034.56 293 1193.59 346.308 1307.61 430.945C1421.63 515.583 1489.02 629.974 1489.02 753.5H1553.02C1553.02 605.026 1471.87 473.167 1345.75 379.555C1219.64 285.941 1046.91 229 857.516 229V293ZM226.016 753.5C226.016 629.974 293.398 515.583 407.423 430.945C521.446 346.308 680.473 293 857.516 293V229C668.118 229 495.394 285.941 369.278 379.555C243.163 473.167 162.016 605.026 162.016 753.5H226.016ZM226.028 756.36C226.02 755.41 226.016 754.457 226.016 753.5H162.016C162.016 754.631 162.02 755.764 162.03 756.899L226.028 756.36ZM294.679 724.629H194.029V788.629H294.679V724.629ZM326.426 760.64C338.493 665.131 400.303 577.13 497.862 512.199C595.288 447.356 726.529 407 871.839 407V343C715.107 343 571.286 386.452 462.402 458.92C353.651 531.301 277.902 634.114 262.931 752.619L326.426 760.64ZM871.839 407C1017.15 407 1148.39 447.356 1245.82 512.199C1343.37 577.13 1405.18 665.131 1417.25 760.64L1480.75 752.619C1465.77 634.114 1390.03 531.301 1281.28 458.92C1172.39 386.452 1028.57 343 871.839 343V407ZM1521 724.629H1449V788.629H1521V724.629Z"
    fill="black" mask="url(#path-6-outside-2_113_109)" />
  <rect x="2.19116" y="-12.5379" width="143.089" height="529.23" rx="71.5445"
    transform="matrix(-0.818281 0.574819 0.574819 0.818281 1525.56 651.462)" fill="white" stroke="black"
    stroke-width="18" />
  <rect x="209.692" y="643.484" width="143.089" height="529.23" rx="71.5445" transform="rotate(19.791 209.692 643.484)"
    fill="white" stroke="black" stroke-width="18" />
  <mask id="path-10-outside-3_113_109" maskUnits="userSpaceOnUse" x="-1.91192" y="708.096" width="162.558"
    height="322.004" fill="black">
    <rect fill="white" x="-1.91192" y="708.096" width="162.558" height="322.004" />
    <path fill-rule="evenodd" clip-rule="evenodd"
      d="M130.121 731.701C115.193 720.663 95.8649 731.149 86.9507 755.122L80.2359 773.181C69.4012 790.95 58.1981 813.347 47.8565 838.742C32.7289 875.888 22.4146 912.155 18.1175 940.239L16.7501 943.916C7.83595 967.89 12.7113 996.272 27.6394 1007.31C42.5676 1018.35 61.8955 1007.86 70.8097 983.89L141.01 795.095C149.924 771.122 145.049 742.74 130.121 731.701Z" />
  </mask>
  <path fill-rule="evenodd" clip-rule="evenodd"
    d="M130.121 731.701C115.193 720.663 95.8649 731.149 86.9507 755.122L80.2359 773.181C69.4012 790.95 58.1981 813.347 47.8565 838.742C32.7289 875.888 22.4146 912.155 18.1175 940.239L16.7501 943.916C7.83595 967.89 12.7113 996.272 27.6394 1007.31C42.5676 1018.35 61.8955 1007.86 70.8097 983.89L141.01 795.095C149.924 771.122 145.049 742.74 130.121 731.701Z"
    fill="white" />
  <path
    d="M86.9507 755.122L79.4523 752.334L79.4523 752.334L86.9507 755.122ZM130.121 731.701L125.365 738.134L125.365 738.134L130.121 731.701ZM80.2359 773.181L87.0663 777.345L87.4664 776.689L87.7343 775.969L80.2359 773.181ZM47.8565 838.742L55.2657 841.759L47.8565 838.742ZM18.1175 940.239L25.6159 943.027L25.9015 942.259L26.0255 941.449L18.1175 940.239ZM16.7501 943.916L24.2485 946.705L24.2485 946.705L16.7501 943.916ZM27.6394 1007.31L22.883 1013.74L22.883 1013.74L27.6394 1007.31ZM70.8097 983.89L63.3113 981.102L63.3113 981.102L70.8097 983.89ZM141.01 795.095L148.509 797.884L148.509 797.884L141.01 795.095ZM94.4492 757.91C98.4299 747.204 104.424 740.391 110.096 737.314C115.423 734.424 120.617 734.623 125.365 738.134L134.877 725.269C124.697 717.741 112.763 717.664 102.466 723.25C92.5123 728.65 84.3857 739.066 79.4523 752.334L94.4492 757.91ZM87.7343 775.969L94.4492 757.91L79.4523 752.334L72.7375 770.392L87.7343 775.969ZM55.2657 841.759C65.4754 816.688 76.4928 794.686 87.0663 777.345L73.4055 769.016C62.3095 787.213 50.9208 810.006 40.4473 835.724L55.2657 841.759ZM26.0255 941.449C30.2068 914.122 40.3161 878.469 55.2657 841.759L40.4473 835.724C25.1417 873.308 14.6224 910.189 10.2095 939.029L26.0255 941.449ZM24.2485 946.705L25.6159 943.027L10.6191 937.451L9.25167 941.128L24.2485 946.705ZM32.3958 1000.88C27.1588 997.006 22.9015 989.374 21.1384 979.11C19.4022 969.002 20.2925 957.344 24.2485 946.705L9.25168 941.128C4.29357 954.462 3.16443 968.982 5.36937 981.819C7.54748 994.499 13.1919 1006.58 22.883 1013.74L32.3958 1000.88ZM63.3113 981.102C59.3305 991.808 53.336 998.621 47.6649 1001.7C42.3373 1004.59 37.1438 1004.39 32.3958 1000.88L22.883 1013.74C33.0632 1021.27 44.9977 1021.35 55.2947 1015.76C65.2481 1010.36 73.3747 999.946 78.3081 986.678L63.3113 981.102ZM133.512 792.307L63.3113 981.102L78.3081 986.678L148.509 797.884L133.512 792.307ZM125.365 738.134C130.602 742.006 134.859 749.638 136.622 759.902C138.358 770.01 137.468 781.668 133.512 792.307L148.509 797.884C153.467 784.549 154.596 770.03 152.391 757.193C150.213 744.513 144.569 732.435 134.877 725.269L125.365 738.134Z"
    fill="black" mask="url(#path-10-outside-3_113_109)" />
  <mask id="path-12-outside-4_113_109" maskUnits="userSpaceOnUse" x="1595.47" y="666.703" width="229.952"
    height="333.669" fill="black">
    <rect fill="white" x="1595.47" y="666.703" width="229.952" height="333.669" />
    <path fill-rule="evenodd" clip-rule="evenodd"
      d="M1627.11 713.088C1638.82 698.683 1660.15 704.03 1674.75 725.032L1685.74 740.852C1700.66 755.367 1717.08 774.273 1733.41 796.296C1757.31 828.512 1776.32 861.072 1787.47 887.203L1789.71 890.425C1804.31 911.427 1806.65 940.13 1794.93 954.535C1783.22 968.94 1761.89 963.593 1747.29 942.591L1632.33 777.198C1617.73 756.197 1615.39 727.494 1627.11 713.088Z" />
  </mask>
  <path fill-rule="evenodd" clip-rule="evenodd"
    d="M1627.11 713.088C1638.82 698.683 1660.15 704.03 1674.75 725.032L1685.74 740.852C1700.66 755.367 1717.08 774.273 1733.41 796.296C1757.31 828.512 1776.32 861.072 1787.47 887.203L1789.71 890.425C1804.31 911.427 1806.65 940.13 1794.93 954.535C1783.22 968.94 1761.89 963.593 1747.29 942.591L1632.33 777.198C1617.73 756.197 1615.39 727.494 1627.11 713.088Z"
    fill="white" />
  <path
    d="M1674.75 725.032L1681.31 720.466L1681.31 720.466L1674.75 725.032ZM1685.74 740.852L1680.16 746.586L1679.61 746.05L1679.17 745.418L1685.74 740.852ZM1733.41 796.296L1739.84 791.531L1733.41 796.296ZM1787.47 887.203L1780.9 891.77L1780.43 891.097L1780.11 890.343L1787.47 887.203ZM1789.71 890.425L1796.28 885.859L1796.28 885.859L1789.71 890.425ZM1794.93 954.535L1788.73 949.488L1788.73 949.488L1794.93 954.535ZM1747.29 942.591L1753.86 938.025L1753.86 938.025L1747.29 942.591ZM1632.33 777.198L1638.9 772.632L1638.9 772.632L1632.33 777.198ZM1668.18 729.598C1661.66 720.219 1654.16 715.111 1647.9 713.542C1642.02 712.068 1637.04 713.553 1633.31 718.135L1620.9 708.041C1628.89 698.218 1640.43 695.174 1651.79 698.023C1662.77 700.777 1673.24 708.843 1681.31 720.466L1668.18 729.598ZM1679.17 745.418L1668.18 729.598L1681.31 720.466L1692.31 736.286L1679.17 745.418ZM1726.99 801.062C1710.86 779.32 1694.72 760.75 1680.16 746.586L1691.32 735.119C1706.6 749.984 1723.3 769.227 1739.84 791.531L1726.99 801.062ZM1780.11 890.343C1769.26 864.915 1750.6 832.898 1726.99 801.062L1739.84 791.531C1764.01 824.125 1783.38 857.229 1794.83 884.064L1780.11 890.343ZM1783.14 894.991L1780.9 891.77L1794.04 882.637L1796.28 885.859L1783.14 894.991ZM1788.73 949.488C1792.84 944.435 1795.06 935.983 1794.21 925.604C1793.38 915.382 1789.62 904.312 1783.14 894.991L1796.28 885.859C1804.4 897.54 1809.1 911.323 1810.16 924.304C1811.21 937.127 1808.75 950.23 1801.14 959.582L1788.73 949.488ZM1753.86 938.025C1760.38 947.404 1767.88 952.512 1774.14 954.081C1780.02 955.555 1785 954.07 1788.73 949.488L1801.14 959.582C1793.15 969.406 1781.61 972.45 1770.25 969.601C1759.27 966.847 1748.8 958.78 1740.73 947.157L1753.86 938.025ZM1638.9 772.632L1753.86 938.025L1740.73 947.157L1625.76 781.764L1638.9 772.632ZM1633.31 718.135C1629.2 723.189 1626.98 731.64 1627.83 742.02C1628.66 752.242 1632.42 763.312 1638.9 772.632L1625.76 781.764C1617.64 770.083 1612.94 756.301 1611.88 743.319C1610.83 730.496 1613.29 717.393 1620.9 708.041L1633.31 718.135Z"
    fill="black" mask="url(#path-12-outside-4_113_109)" />
</svg>