<svg width="42" height="42" viewBox="0 0 42 42" fill="none" xmlns="http://www.w3.org/2000/svg">
<path d="M14 36.75V33.25C14 31.3935 14.7375 29.613 16.0503 28.3003C17.363 26.9875 19.1435 26.25 21 26.25H33.25C35.1065 26.25 36.887 26.9875 38.1997 28.3003C39.5125 29.613 40.25 31.3935 40.25 33.25V36.75" stroke="white" stroke-width="2" stroke-linecap="round" stroke-linejoin="round"/>
<path d="M27.125 19.25C23.259 19.25 20.125 16.116 20.125 12.25C20.125 8.38401 23.259 5.25 27.125 5.25C30.991 5.25 34.125 8.38401 34.125 12.25C34.125 16.116 30.991 19.25 27.125 19.25Z" stroke="white" stroke-width="2" stroke-linecap="round" stroke-linejoin="round"/>
<path d="M7 14V24.5" stroke="white" stroke-width="2" stroke-linecap="round" stroke-linejoin="round"/>
<path d="M1.75 19.25H12.25" stroke="white" stroke-width="2" stroke-linecap="round" stroke-linejoin="round"/>
</svg>
