<svg width="42" height="42" viewBox="0 0 42 42" fill="none" xmlns="http://www.w3.org/2000/svg">
<path d="M33.5416 36.75V33.25C33.5416 31.3935 32.8349 29.613 31.5768 28.3003C30.3188 26.9875 28.6125 26.25 26.8333 26.25H13.4166C11.6375 26.25 9.93119 26.9875 8.67314 28.3003C7.41508 29.613 6.70831 31.3935 6.70831 33.25V36.75" stroke="white" stroke-width="2" stroke-linecap="round" stroke-linejoin="round"/>
<path d="M20.125 19.25C23.8299 19.25 26.8334 16.116 26.8334 12.25C26.8334 8.38401 23.8299 5.25 20.125 5.25C16.4201 5.25 13.4167 8.38401 13.4167 12.25C13.4167 16.116 16.4201 19.25 20.125 19.25Z" stroke="white" stroke-width="2" stroke-linecap="round" stroke-linejoin="round"/>
<rect x="24.5" y="24.5" width="17.5" height="17.5" rx="6.5" fill="#101010"/>
<rect x="25.6664" y="25.6668" width="15.1667" height="15.1667" rx="6" fill="#1DB954"/>
<path d="M36.9795 33.8823L31.4121 37.232C30.9397 37.5159 30.3333 37.1721 30.3333 36.5996V29.9002C30.3333 29.3287 30.9388 28.9839 31.4121 29.2688L36.9795 32.6184C37.087 32.6821 37.1763 32.774 37.2384 32.885C37.3006 32.996 37.3333 33.122 37.3333 33.2504C37.3333 33.3787 37.3006 33.5047 37.2384 33.6157C37.1763 33.7267 37.087 33.8187 36.9795 33.8823V33.8823Z" fill="#101010"/>
</svg>
