<svg width="71" height="284" viewBox="0 0 71 284" fill="none" xmlns="http://www.w3.org/2000/svg">
<path d="M0 20.2857C0 14.9056 0.467522 9.74586 1.29971 5.94155C2.13191 2.13724 3.2606 0 4.4375 0H66.5625C67.7394 0 68.8681 2.13724 69.7003 5.94155C70.5325 9.74586 71 14.9056 71 20.2857C71 25.6658 70.5325 30.8256 69.7003 34.6299C68.8681 38.4342 67.7394 40.5714 66.5625 40.5714H4.4375C3.2606 40.5714 2.13191 38.4342 1.29971 34.6299C0.467522 30.8256 0 25.6658 0 20.2857ZM0 101.429C0 96.0485 0.467522 90.8887 1.29971 87.0844C2.13191 83.2801 3.2606 81.1429 4.4375 81.1429H66.5625C67.7394 81.1429 68.8681 83.2801 69.7003 87.0844C70.5325 90.8887 71 96.0485 71 101.429C71 106.809 70.5325 111.968 69.7003 115.773C68.8681 119.577 67.7394 121.714 66.5625 121.714H4.4375C3.2606 121.714 2.13191 119.577 1.29971 115.773C0.467522 111.968 0 106.809 0 101.429ZM0 182.571C0 177.191 0.467522 172.032 1.29971 168.227C2.13191 164.423 3.2606 162.286 4.4375 162.286H66.5625C67.7394 162.286 68.8681 164.423 69.7003 168.227C70.5325 172.032 71 177.191 71 182.571C71 187.952 70.5325 193.111 69.7003 196.916C68.8681 200.72 67.7394 202.857 66.5625 202.857H4.4375C3.2606 202.857 2.13191 200.72 1.29971 196.916C0.467522 193.111 0 187.952 0 182.571ZM0 263.714C0 258.334 0.467522 253.174 1.29971 249.37C2.13191 245.566 3.2606 243.429 4.4375 243.429H66.5625C67.7394 243.429 68.8681 245.566 69.7003 249.37C70.5325 253.174 71 258.334 71 263.714C71 269.094 70.5325 274.254 69.7003 278.058C68.8681 281.863 67.7394 284 66.5625 284H4.4375C3.2606 284 2.13191 281.863 1.29971 278.058C0.467522 274.254 0 269.094 0 263.714Z" fill="#AEAEAE"/>
</svg>
