<svg width="236" height="288" viewBox="0 0 236 288" fill="none" xmlns="http://www.w3.org/2000/svg">
<path d="M191.75 135C189.794 135 187.918 135.948 186.535 137.636C185.152 139.324 184.375 141.613 184.375 144C184.375 165.483 177.382 186.085 164.934 201.276C152.486 216.466 135.603 225 118 225C100.396 225 83.5132 216.466 71.0655 201.276C58.6178 186.085 51.6247 165.483 51.6247 144C51.6247 141.613 50.8477 139.324 49.4646 137.636C48.0816 135.948 46.2057 135 44.2497 135C42.2937 135 40.4179 135.948 39.0348 137.636C37.6517 139.324 36.8747 141.613 36.8747 144C36.7907 168.769 44.3181 192.677 57.9714 211.004C71.6246 229.332 90.4117 240.748 110.625 243V270C110.625 272.387 111.402 274.676 112.785 276.364C114.168 278.052 116.044 279 118 279C119.956 279 121.832 278.052 123.215 276.364C124.598 274.676 125.375 272.387 125.375 270V243C145.588 240.748 164.375 229.332 178.028 211.004C191.681 192.677 199.209 168.769 199.125 144C199.125 141.613 198.348 139.324 196.965 137.636C195.582 135.948 193.706 135 191.75 135Z" fill="white"/>
<path d="M118 189C129.736 189 140.991 183.311 149.289 173.184C157.588 163.057 162.25 149.322 162.25 135V63C162.25 48.6783 157.588 34.9432 149.289 24.8162C140.991 14.6893 129.736 9 118 9C106.264 9 95.009 14.6893 86.7105 24.8162C78.412 34.9432 73.75 48.6783 73.75 63V135C73.75 149.322 78.412 163.057 86.7105 173.184C95.009 183.311 106.264 189 118 189Z" fill="white"/>
</svg>
