<svg width="1873" height="1873" viewBox="0 0 1873 1873" fill="none" xmlns="http://www.w3.org/2000/svg">
<mask id="mask0_107_63" style="mask-type:alpha" maskUnits="userSpaceOnUse" x="0" y="363" width="1873" height="1105">
<rect y="363" width="1873" height="1105" fill="#D9D9D9"/>
</mask>
<g mask="url(#mask0_107_63)">
<mask id="path-2-outside-1_107_63" maskUnits="userSpaceOnUse" x="229.393" y="851.99" width="1576" height="1172" fill="black">
<rect fill="white" x="229.393" y="851.99" width="1576" height="1172"/>
<path fill-rule="evenodd" clip-rule="evenodd" d="M681.686 1847.64C573.069 1950.08 450.227 2016.4 402.478 2015.88C309.507 2014.88 236.589 1787.85 239.613 1508.8C224.028 1318.62 292.971 1138.43 368.756 940.368L368.758 940.363L368.761 940.354C378.803 914.109 388.966 887.55 399.067 860.612C404.72 851.952 523.576 934.729 667.417 1046.84C827.671 993.667 1044.11 1017.59 1233.33 1082.88C1285.23 966.348 1341.19 875.702 1358.31 883.84C1358.47 883.845 1358.64 883.892 1358.79 883.984L1361.07 885.365C1361.13 885.402 1361.19 885.445 1361.24 885.491C1422.42 909.839 1508.54 1050.34 1663.35 1302.93L1663.35 1302.93C1666.57 1308.19 1669.83 1313.51 1673.12 1318.87C1788.24 1593.94 1842.85 1846.04 1749.91 1893.26C1688.17 1924.62 1585.83 1856.84 1484.44 1729.79C1355.68 1821.86 1164.26 1880.23 950.535 1880.23C855.3 1880.23 764.493 1868.64 681.686 1847.64Z"/>
</mask>
<path fill-rule="evenodd" clip-rule="evenodd" d="M681.686 1847.64C573.069 1950.08 450.227 2016.4 402.478 2015.88C309.507 2014.88 236.589 1787.85 239.613 1508.8C224.028 1318.62 292.971 1138.43 368.756 940.368L368.758 940.363L368.761 940.354C378.803 914.109 388.966 887.55 399.067 860.612C404.72 851.952 523.576 934.729 667.417 1046.84C827.671 993.667 1044.11 1017.59 1233.33 1082.88C1285.23 966.348 1341.19 875.702 1358.31 883.84C1358.47 883.845 1358.64 883.892 1358.79 883.984L1361.07 885.365C1361.13 885.402 1361.19 885.445 1361.24 885.491C1422.42 909.839 1508.54 1050.34 1663.35 1302.93L1663.35 1302.93C1666.57 1308.19 1669.83 1313.51 1673.12 1318.87C1788.24 1593.94 1842.85 1846.04 1749.91 1893.26C1688.17 1924.62 1585.83 1856.84 1484.44 1729.79C1355.68 1821.86 1164.26 1880.23 950.535 1880.23C855.3 1880.23 764.493 1868.64 681.686 1847.64Z" fill="black"/>
<path d="M402.478 2015.88L402.565 2007.88L402.565 2007.88L402.478 2015.88ZM681.686 1847.64L683.652 1839.89L679.394 1838.81L676.197 1841.82L681.686 1847.64ZM239.613 1508.8L247.612 1508.89L247.616 1508.51L247.586 1508.15L239.613 1508.8ZM368.756 940.368L361.286 937.504L361.284 937.509L368.756 940.368ZM368.758 940.363L361.291 937.492L361.288 937.499L368.758 940.363ZM368.761 940.354L376.228 943.226L376.233 943.213L368.761 940.354ZM399.067 860.612L392.368 856.239L391.886 856.977L391.577 857.803L399.067 860.612ZM667.417 1046.84L662.499 1053.15L665.875 1055.78L669.937 1054.44L667.417 1046.84ZM1233.33 1082.88L1230.72 1090.44L1237.65 1092.84L1240.64 1086.14L1233.33 1082.88ZM1358.31 883.84L1354.87 891.065L1356.39 891.785L1358.06 891.836L1358.31 883.84ZM1358.79 883.984L1354.65 890.825L1354.65 890.826L1358.79 883.984ZM1361.07 885.365L1365.22 878.524L1365.22 878.524L1361.07 885.365ZM1361.24 885.491L1355.76 891.325L1356.87 892.364L1358.28 892.925L1361.24 885.491ZM1663.35 1302.93L1670.4 1299.16L1670.29 1298.95L1670.17 1298.75L1663.35 1302.93ZM1663.35 1302.93L1656.29 1306.69L1656.4 1306.9L1656.52 1307.11L1663.35 1302.93ZM1673.12 1318.87L1680.5 1315.78L1680.26 1315.21L1679.94 1314.69L1673.12 1318.87ZM1749.91 1893.26L1746.28 1886.13L1746.28 1886.13L1749.91 1893.26ZM1484.44 1729.79L1490.69 1724.8L1485.96 1718.86L1479.79 1723.28L1484.44 1729.79ZM402.392 2023.88C415.875 2024.03 433.652 2019.53 453.872 2011.68C474.287 2003.74 497.897 1992.1 523.288 1977.28C574.074 1947.65 632.427 1905.1 687.175 1853.46L676.197 1841.82C622.327 1892.63 564.951 1934.45 515.225 1963.46C490.36 1977.97 467.518 1989.21 448.076 1996.76C428.44 2004.39 412.956 2008 402.565 2007.88L402.392 2023.88ZM231.613 1508.71C230.095 1648.86 247.631 1776.27 277.431 1869.05C292.317 1915.4 310.404 1953.55 331.045 1980.35C351.616 2007.05 375.645 2023.59 402.392 2023.88L402.565 2007.88C382.825 2007.67 362.876 1995.45 343.721 1970.59C324.636 1945.81 307.251 1909.57 292.664 1864.16C263.518 1773.41 246.107 1647.79 247.612 1508.89L231.613 1508.71ZM361.284 937.509C285.644 1135.19 215.879 1317.13 231.64 1509.45L247.586 1508.15C232.176 1320.1 300.298 1141.67 376.228 943.227L361.284 937.509ZM361.288 937.499L361.286 937.504L376.226 943.232L376.227 943.227L361.288 937.499ZM361.295 937.482L361.291 937.492L376.224 943.235L376.228 943.226L361.295 937.482ZM391.577 857.803C381.486 884.712 371.333 911.246 361.29 937.495L376.233 943.213C386.274 916.971 396.445 890.388 406.558 863.421L391.577 857.803ZM672.335 1040.53C600.342 984.42 534.545 935.603 485.986 901.867C461.733 885.018 441.649 871.838 427.192 863.385C420.014 859.188 413.948 855.992 409.331 854.117C407.092 853.208 404.702 852.402 402.463 852.111C401.347 851.966 399.775 851.879 398.076 852.283C396.25 852.717 393.945 853.822 392.368 856.239L405.766 864.985C404.542 866.86 402.812 867.603 401.776 867.849C401.286 867.966 400.91 867.987 400.711 867.99C400.604 867.991 400.525 867.988 400.477 867.984C400.428 867.981 400.402 867.978 400.402 867.978C400.401 867.978 400.42 867.98 400.459 867.987C400.499 867.995 400.555 868.006 400.628 868.023C400.778 868.057 400.98 868.11 401.241 868.19C401.769 868.35 402.454 868.593 403.311 868.941C406.838 870.374 412.109 873.1 419.116 877.197C433.029 885.333 452.71 898.231 476.857 915.008C525.1 948.524 590.651 997.152 662.499 1053.15L672.335 1040.53ZM1235.94 1075.32C1045.88 1009.74 827.493 985.298 664.898 1039.25L669.937 1054.44C827.849 1002.04 1042.33 1025.44 1230.72 1090.44L1235.94 1075.32ZM1361.74 876.615C1355.93 873.853 1350.08 876.028 1346.09 878.384C1341.83 880.893 1337.42 884.878 1332.97 889.695C1324.01 899.414 1313.48 914.116 1302.07 932.371C1279.2 968.99 1252.07 1021.14 1226.02 1079.63L1240.64 1086.14C1266.49 1028.09 1293.28 976.65 1315.64 940.847C1326.86 922.891 1336.77 909.174 1344.73 900.544C1348.75 896.187 1351.93 893.515 1354.21 892.168C1356.75 890.669 1356.4 891.792 1354.87 891.065L1361.74 876.615ZM1362.94 877.143C1361.58 876.317 1360.06 875.889 1358.55 875.843L1358.06 891.836C1356.89 891.8 1355.7 891.467 1354.65 890.825L1362.94 877.143ZM1365.22 878.524L1362.94 877.143L1354.65 890.826L1356.92 892.207L1365.22 878.524ZM1366.71 879.658C1366.25 879.228 1365.75 878.849 1365.22 878.524L1356.92 892.206C1356.51 891.956 1356.12 891.661 1355.76 891.325L1366.71 879.658ZM1670.17 1298.75C1592.82 1172.54 1532.44 1074.03 1483.75 1004.05C1459.4 969.055 1437.81 940.965 1418.34 920.02C1398.98 899.194 1381.15 884.806 1364.19 878.058L1358.28 892.925C1371.92 898.351 1387.79 910.656 1406.63 930.914C1425.35 951.055 1446.44 978.442 1470.62 1013.19C1518.98 1082.69 1579.07 1180.73 1656.52 1307.11L1670.17 1298.75ZM1670.4 1299.16L1670.4 1299.16L1656.29 1306.69L1656.29 1306.69L1670.4 1299.16ZM1679.94 1314.69C1676.65 1309.33 1673.39 1304.01 1670.17 1298.75L1656.52 1307.11C1659.75 1312.37 1663.01 1317.69 1666.3 1323.05L1679.94 1314.69ZM1753.53 1900.39C1779.94 1886.98 1794.81 1859.46 1801.18 1823.67C1807.56 1787.84 1805.71 1742.3 1797.43 1690.25C1780.87 1586.05 1738.17 1453.59 1680.5 1315.78L1665.74 1321.96C1723.18 1459.22 1765.35 1590.34 1781.63 1692.76C1789.78 1744.02 1791.36 1787.56 1785.43 1820.87C1779.49 1854.23 1766.35 1875.93 1746.28 1886.13L1753.53 1900.39ZM1478.19 1734.78C1529.19 1798.69 1580.77 1848.14 1627.78 1877.7C1674.39 1907.01 1718.74 1918.07 1753.53 1900.39L1746.28 1886.13C1719.34 1899.82 1681.65 1892.67 1636.3 1864.16C1591.36 1835.9 1541.08 1787.94 1490.69 1724.8L1478.19 1734.78ZM950.535 1888.23C1165.58 1888.23 1358.72 1829.53 1489.09 1736.29L1479.79 1723.28C1352.65 1814.2 1162.95 1872.23 950.535 1872.23V1888.23ZM679.72 1855.4C763.19 1876.56 854.658 1888.23 950.535 1888.23V1872.23C855.941 1872.23 765.796 1860.72 683.652 1839.89L679.72 1855.4Z" fill="white" mask="url(#path-2-outside-1_107_63)"/>
<path d="M1287.85 1343.14C1271.99 1343.77 1257.42 1340.48 1246.68 1334.59C1235.97 1328.71 1228.92 1320.13 1228.52 1310.18C1228.12 1300.22 1234.46 1291.11 1244.67 1284.39C1254.89 1277.65 1269.15 1273.2 1285.01 1272.56C1300.88 1271.93 1315.45 1275.22 1326.18 1281.11C1336.89 1286.99 1343.94 1295.57 1344.34 1305.52C1344.74 1315.47 1338.41 1324.59 1328.2 1331.31C1317.97 1338.04 1303.72 1342.5 1287.85 1343.14Z" fill="white" stroke="white" stroke-width="2"/>
<path d="M681.519 1310.1C681.158 1319.08 674.776 1327.14 664.393 1332.84C654.029 1338.53 639.833 1341.76 624.269 1341.14C608.704 1340.51 594.814 1336.14 584.941 1329.64C575.049 1323.12 569.336 1314.58 569.697 1305.6C570.058 1296.62 576.439 1288.56 586.823 1282.86C597.187 1277.17 611.382 1273.94 626.947 1274.56C642.512 1275.19 656.402 1279.56 666.275 1286.06C676.167 1292.58 681.88 1301.12 681.519 1310.1Z" fill="white" stroke="white" stroke-width="2"/>
<mask id="path-6-outside-2_107_63" maskUnits="userSpaceOnUse" x="64.8789" y="363.332" width="1765" height="941" fill="black">
<rect fill="white" x="64.8789" y="363.332" width="1765" height="941"/>
<path fill-rule="evenodd" clip-rule="evenodd" d="M1538.51 827.802C1531.54 829.374 1524.72 832.149 1518.35 836.191L1487.55 855.712C1457.7 874.635 1448.83 914.177 1467.76 944.031L1672.18 1266.54C1691.1 1296.39 1730.64 1305.25 1760.49 1286.33L1791.29 1266.81C1821.15 1247.88 1830.01 1208.34 1811.08 1178.49L1606.67 855.984C1599.82 845.191 1590.29 837.141 1579.49 832.156C1556.94 574.863 1267.36 371.332 913.451 371.332C575.312 371.332 295.902 557.126 252.003 798.09C232.155 803.154 215.081 817.639 207.588 838.354L77.7123 1197.42C65.6897 1230.66 82.8887 1267.35 116.127 1279.37L150.416 1291.78C183.654 1303.8 220.346 1286.6 232.368 1253.36L362.245 894.294C374.267 861.055 357.068 824.364 323.829 812.341L292.306 800.939C334.238 575.151 596.355 401.222 913.451 401.222C1243.01 401.222 1513.19 589.095 1538.51 827.802Z"/>
</mask>
<path fill-rule="evenodd" clip-rule="evenodd" d="M1538.51 827.802C1531.54 829.374 1524.72 832.149 1518.35 836.191L1487.55 855.712C1457.7 874.635 1448.83 914.177 1467.76 944.031L1672.18 1266.54C1691.1 1296.39 1730.64 1305.25 1760.49 1286.33L1791.29 1266.81C1821.15 1247.88 1830.01 1208.34 1811.08 1178.49L1606.67 855.984C1599.82 845.191 1590.29 837.141 1579.49 832.156C1556.94 574.863 1267.36 371.332 913.451 371.332C575.312 371.332 295.902 557.126 252.003 798.09C232.155 803.154 215.081 817.639 207.588 838.354L77.7123 1197.42C65.6897 1230.66 82.8887 1267.35 116.127 1279.37L150.416 1291.78C183.654 1303.8 220.346 1286.6 232.368 1253.36L362.245 894.294C374.267 861.055 357.068 824.364 323.829 812.341L292.306 800.939C334.238 575.151 596.355 401.222 913.451 401.222C1243.01 401.222 1513.19 589.095 1538.51 827.802Z" fill="#0C0020"/>
<path d="M1538.51 827.802L1540.27 835.605L1547.22 834.037L1546.47 826.958L1538.51 827.802ZM1518.35 836.191L1522.63 842.948L1522.63 842.948L1518.35 836.191ZM1487.55 855.712L1491.83 862.469L1491.83 862.469L1487.55 855.712ZM1467.76 944.031L1474.51 939.748L1474.51 939.748L1467.76 944.031ZM1672.18 1266.54L1665.42 1270.82L1665.42 1270.82L1672.18 1266.54ZM1760.49 1286.33L1756.21 1279.57L1756.21 1279.57L1760.49 1286.33ZM1791.29 1266.81L1795.57 1273.56L1795.57 1273.56L1791.29 1266.81ZM1811.08 1178.49L1804.33 1182.77L1804.33 1182.77L1811.08 1178.49ZM1606.67 855.984L1613.42 851.701L1613.42 851.701L1606.67 855.984ZM1579.49 832.157L1571.52 832.855L1571.92 837.476L1576.14 839.42L1579.49 832.157ZM252.003 798.09L253.981 805.841L258.953 804.573L259.873 799.524L252.003 798.09ZM207.588 838.354L200.065 835.633L200.065 835.633L207.588 838.354ZM77.7123 1197.42L85.2353 1200.14L85.2353 1200.14L77.7123 1197.42ZM116.127 1279.37L118.849 1271.85L118.849 1271.85L116.127 1279.37ZM150.416 1291.78L147.694 1299.3L147.694 1299.3L150.416 1291.78ZM232.368 1253.36L239.891 1256.08L239.891 1256.08L232.368 1253.36ZM362.245 894.294L354.722 891.573L354.722 891.573L362.245 894.294ZM323.829 812.341L321.108 819.864L321.108 819.864L323.829 812.341ZM292.306 800.939L284.441 799.478L283.201 806.153L289.585 808.462L292.306 800.939ZM1536.75 819.998C1528.9 821.77 1521.23 824.894 1514.06 829.434L1522.63 842.948C1528.22 839.403 1534.19 836.979 1540.27 835.605L1536.75 819.998ZM1514.06 829.434L1483.27 848.955L1491.83 862.469L1522.63 842.948L1514.06 829.434ZM1483.27 848.955C1449.68 870.243 1439.71 914.728 1461 948.314L1474.51 939.748C1457.96 913.626 1465.71 879.026 1491.83 862.469L1483.27 848.955ZM1461 948.314L1665.42 1270.82L1678.93 1262.25L1474.51 939.748L1461 948.314ZM1665.42 1270.82C1686.71 1304.4 1731.19 1314.37 1764.78 1293.08L1756.21 1279.57C1730.09 1296.13 1695.49 1288.37 1678.93 1262.25L1665.42 1270.82ZM1764.78 1293.08L1795.57 1273.56L1787.01 1260.05L1756.21 1279.57L1764.78 1293.08ZM1795.57 1273.56C1829.16 1252.28 1839.13 1207.79 1817.84 1174.21L1804.33 1182.77C1820.89 1208.89 1813.13 1243.49 1787.01 1260.05L1795.57 1273.56ZM1817.84 1174.21L1613.42 851.701L1599.91 860.267L1804.33 1182.77L1817.84 1174.21ZM1613.42 851.701C1605.73 839.569 1595 830.503 1582.84 824.893L1576.14 839.42C1585.58 843.779 1593.92 850.813 1599.91 860.267L1613.42 851.701ZM1587.46 831.458C1575.93 699.891 1496.19 582.735 1375.3 498.691C1254.39 414.632 1091.89 363.332 913.451 363.332V379.332C1088.93 379.332 1248.17 429.798 1366.16 511.828C1484.18 593.872 1560.5 707.129 1571.52 832.855L1587.46 831.458ZM913.451 363.332C573.201 363.332 288.997 550.392 244.132 796.656L259.873 799.524C302.807 563.86 577.423 379.332 913.451 379.332V363.332ZM250.025 790.338C227.719 796.03 208.497 812.322 200.065 835.633L215.111 841.075C221.665 822.957 236.59 810.279 253.981 805.841L250.025 790.338ZM200.065 835.633L70.1893 1194.7L85.2353 1200.14L215.111 841.075L200.065 835.633ZM70.1893 1194.7C56.6639 1232.09 76.0127 1273.37 113.406 1286.9L118.849 1271.85C89.7647 1261.33 74.7155 1229.23 85.2353 1200.14L70.1893 1194.7ZM113.406 1286.9L147.694 1299.3L153.137 1284.25L118.849 1271.85L113.406 1286.9ZM147.694 1299.3C185.088 1312.82 226.366 1293.47 239.891 1256.08L224.845 1250.64C214.326 1279.72 182.221 1294.77 153.137 1284.25L147.694 1299.3ZM239.891 1256.08L369.768 897.015L354.722 891.573L224.845 1250.64L239.891 1256.08ZM369.768 897.015C383.293 859.622 363.944 818.344 326.551 804.818L321.108 819.864C350.192 830.384 365.241 862.489 354.722 891.573L369.768 897.015ZM326.551 804.818L295.027 793.416L289.585 808.462L321.108 819.864L326.551 804.818ZM300.172 802.4C341.124 581.889 598.468 409.222 913.451 409.222V393.222C594.243 393.222 327.353 568.413 284.441 799.478L300.172 802.4ZM913.451 409.222C1076.76 409.222 1225.09 455.78 1335.54 531.593C1446.02 607.421 1518.2 712.165 1530.56 828.646L1546.47 826.958C1533.5 704.732 1457.93 596.186 1344.6 518.401C1231.25 440.6 1079.7 393.222 913.451 393.222V409.222Z" fill="white" mask="url(#path-6-outside-2_107_63)"/>
<mask id="path-8-outside-3_107_63" maskUnits="userSpaceOnUse" x="0" y="832.15" width="194" height="325" fill="black">
<rect fill="white" y="832.15" width="194" height="325"/>
<path fill-rule="evenodd" clip-rule="evenodd" d="M152.745 844.266C126.564 834.641 97.5377 848.062 87.9129 874.243L83.6981 885.708C67.7089 906.865 51.8251 934.746 38.5206 966.572C19.6458 1011.72 10.0696 1054.99 10.4739 1085.77C4.3671 1110.45 17.6851 1136.28 42.0929 1145.26C68.2738 1154.88 97.3001 1141.46 106.925 1115.28L182.722 909.098C192.347 882.917 178.926 853.891 152.745 844.266Z"/>
</mask>
<path fill-rule="evenodd" clip-rule="evenodd" d="M152.745 844.266C126.564 834.641 97.5377 848.062 87.9129 874.243L83.6981 885.708C67.7089 906.865 51.8251 934.746 38.5206 966.572C19.6458 1011.72 10.0696 1054.99 10.4739 1085.77C4.3671 1110.45 17.6851 1136.28 42.0929 1145.26C68.2738 1154.88 97.3001 1141.46 106.925 1115.28L182.722 909.098C192.347 882.917 178.926 853.891 152.745 844.266Z" fill="#0C0020"/>
<path d="M87.913 874.243L95.4217 877.004L87.913 874.243ZM152.745 844.266L155.505 836.757L155.505 836.757L152.745 844.266ZM83.6982 885.708L90.0806 890.532L90.7969 889.584L91.2069 888.469L83.6982 885.708ZM38.5207 966.572L31.1397 963.487L38.5207 966.572ZM10.474 1085.77L18.2397 1087.7L18.4869 1086.7L18.4734 1085.67L10.474 1085.77ZM42.093 1145.26L44.8534 1137.75L44.8534 1137.75L42.093 1145.26ZM106.925 1115.28L99.4163 1112.52L99.4163 1112.52L106.925 1115.28ZM182.722 909.098L175.214 906.338L175.214 906.338L182.722 909.098ZM95.4217 877.004C103.522 854.97 127.951 843.674 149.985 851.775L155.505 836.757C125.178 825.608 91.5536 841.155 80.4043 871.483L95.4217 877.004ZM91.2069 888.469L95.4217 877.004L80.4043 871.483L76.1895 882.948L91.2069 888.469ZM45.9017 969.658C58.9903 938.348 74.5576 911.072 90.0806 890.532L77.3158 880.885C60.8605 902.659 44.6602 931.144 31.1397 963.487L45.9017 969.658ZM18.4734 1085.67C18.0881 1056.34 27.2841 1014.19 45.9017 969.658L31.1397 963.487C12.0077 1009.25 2.05132 1053.64 2.47474 1085.88L18.4734 1085.67ZM44.8534 1137.75C24.3167 1130.2 13.1022 1108.45 18.2397 1087.7L2.7084 1083.85C-4.36779 1112.44 11.0537 1142.37 39.3326 1152.76L44.8534 1137.75ZM99.4163 1112.52C91.316 1134.55 66.8874 1145.85 44.8534 1137.75L39.3326 1152.76C69.6604 1163.91 103.284 1148.37 114.434 1118.04L99.4163 1112.52ZM175.214 906.338L99.4163 1112.52L114.434 1118.04L190.231 911.858L175.214 906.338ZM149.985 851.775C172.018 859.875 183.314 884.304 175.214 906.338L190.231 911.858C201.38 881.531 185.833 847.907 155.505 836.757L149.985 851.775Z" fill="white" mask="url(#path-8-outside-3_107_63)"/>
<mask id="path-10-outside-4_107_63" maskUnits="userSpaceOnUse" x="1633.18" y="840.673" width="238" height="304" fill="black">
<rect fill="white" x="1633.18" y="840.673" width="238" height="304"/>
<path fill-rule="evenodd" clip-rule="evenodd" d="M1724.61 861.03C1708.17 847.616 1684.34 845.579 1665.48 857.636C1641.98 872.664 1635.11 903.896 1650.14 927.396L1768.49 1112.46C1783.52 1135.96 1814.75 1142.83 1838.25 1127.8C1853.38 1118.12 1861.62 1101.73 1861.55 1085C1868.72 1057.26 1848.93 1001.48 1810.15 946.289C1782.25 906.592 1750.73 876.04 1724.61 861.03Z"/>
</mask>
<path fill-rule="evenodd" clip-rule="evenodd" d="M1724.61 861.03C1708.17 847.616 1684.34 845.579 1665.48 857.636C1641.98 872.664 1635.11 903.896 1650.14 927.396L1768.49 1112.46C1783.52 1135.96 1814.75 1142.83 1838.25 1127.8C1853.38 1118.12 1861.62 1101.73 1861.55 1085C1868.72 1057.26 1848.93 1001.48 1810.15 946.289C1782.25 906.592 1750.73 876.04 1724.61 861.03Z" fill="#0C0020"/>
<path d="M1724.61 861.03L1719.56 867.229L1720.06 867.641L1720.63 867.966L1724.61 861.03ZM1665.48 857.636L1661.17 850.896L1665.48 857.636ZM1650.14 927.396L1643.4 931.706L1643.4 931.706L1650.14 927.396ZM1768.49 1112.46L1775.23 1108.15L1775.23 1108.15L1768.49 1112.46ZM1838.25 1127.8L1833.94 1121.06L1833.94 1121.06L1838.25 1127.8ZM1861.55 1085L1853.81 1083L1853.55 1084L1853.55 1085.03L1861.55 1085ZM1810.15 946.289L1803.6 950.889L1803.6 950.889L1810.15 946.289ZM1729.67 854.83C1710.63 839.298 1683.02 836.923 1661.17 850.896L1669.79 864.376C1685.65 854.235 1705.71 855.935 1719.56 867.229L1729.67 854.83ZM1661.17 850.896C1633.95 868.304 1625.99 904.484 1643.4 931.706L1656.88 923.086C1644.23 903.309 1650.01 877.023 1669.79 864.376L1661.17 850.896ZM1643.4 931.706L1761.75 1116.77L1775.23 1108.15L1656.88 923.086L1643.4 931.706ZM1761.75 1116.77C1779.16 1143.99 1815.34 1151.95 1842.56 1134.54L1833.94 1121.06C1814.16 1133.71 1787.88 1127.93 1775.23 1108.15L1761.75 1116.77ZM1842.56 1134.54C1860.1 1123.33 1869.63 1104.32 1869.55 1084.97L1853.55 1085.03C1853.61 1099.13 1846.67 1112.92 1833.94 1121.06L1842.56 1134.54ZM1869.3 1087C1873.51 1070.69 1869.63 1047.87 1860.6 1023.19C1851.42 998.118 1836.42 969.759 1816.69 941.688L1803.6 950.889C1822.66 978.006 1836.95 1005.13 1845.57 1028.69C1854.33 1052.63 1856.76 1071.57 1853.81 1083L1869.3 1087ZM1816.69 941.688C1788.4 901.427 1756.08 869.885 1728.6 854.094L1720.63 867.966C1745.38 882.195 1776.1 911.757 1803.6 950.889L1816.69 941.688Z" fill="white" mask="url(#path-10-outside-4_107_63)"/>
</g>
</svg>
